<svg xmlns="http://www.w3.org/2000/svg" viewBox="0 0 120 130" role="img" aria-label="blackberry-piece illüstrasyonu">
<title>blackberry-piece illüstrasyonu</title>
<g transform="translate(60 60) rotate(-6) scale(1.4)">
  <circle cx="0" cy="-14" r="8.5" fill="#5B2A7A" stroke="#1B1512" stroke-width="2.6"/><circle cx="-11" cy="-4" r="8.5" fill="#5B2A7A" stroke="#1B1512" stroke-width="2.6"/><circle cx="11" cy="-4" r="8.5" fill="#5B2A7A" stroke="#1B1512" stroke-width="2.6"/><circle cx="-6" cy="8" r="8.5" fill="#5B2A7A" stroke="#1B1512" stroke-width="2.6"/><circle cx="6" cy="8" r="8.5" fill="#5B2A7A" stroke="#1B1512" stroke-width="2.6"/><circle cx="0" cy="-2" r="8.5" fill="#5B2A7A" stroke="#1B1512" stroke-width="2.6"/><circle cx="0" cy="18" r="8.5" fill="#5B2A7A" stroke="#1B1512" stroke-width="2.6"/><circle cx="-13" cy="12" r="8.5" fill="#5B2A7A" stroke="#1B1512" stroke-width="2.6"/><circle cx="13" cy="12" r="8.5" fill="#5B2A7A" stroke="#1B1512" stroke-width="2.6"/>
  <circle cx="-2" cy="-16" r="2.6" fill="#B387D6" opacity="0.8"/><circle cx="-13" cy="-6" r="2.6" fill="#B387D6" opacity="0.8"/><circle cx="9" cy="-6" r="2.6" fill="#B387D6" opacity="0.8"/><circle cx="-8" cy="6" r="2.6" fill="#B387D6" opacity="0.8"/><circle cx="4" cy="6" r="2.6" fill="#B387D6" opacity="0.8"/><circle cx="-2" cy="-4" r="2.6" fill="#B387D6" opacity="0.8"/><circle cx="-2" cy="16" r="2.6" fill="#B387D6" opacity="0.8"/><circle cx="-15" cy="10" r="2.6" fill="#B387D6" opacity="0.8"/><circle cx="11" cy="10" r="2.6" fill="#B387D6" opacity="0.8"/>
  <path d="M0,-22 C6,-30 14,-30 16,-24" fill="none" stroke="#5FC66B" stroke-width="4" stroke-linecap="round"/>
</g>
</svg>
