<svg xmlns="http://www.w3.org/2000/svg" viewBox="0 0 300 300" role="img" aria-label="DOKURU topluluk paylaşımı 4">
<title>DOKURU topluluk paylaşımı 4</title>

<rect width="300" height="300" fill="#7B4FA0"/>
<g opacity="0.18" fill="#FFF9E8">
  <circle cx="20" cy="20" r="8"/><circle cx="100" cy="20" r="8"/><circle cx="180" cy="20" r="8"/><circle cx="260" cy="20" r="8"/><circle cx="20" cy="100" r="8"/><circle cx="100" cy="100" r="8"/><circle cx="180" cy="100" r="8"/><circle cx="260" cy="100" r="8"/><circle cx="20" cy="180" r="8"/><circle cx="100" cy="180" r="8"/><circle cx="180" cy="180" r="8"/><circle cx="260" cy="180" r="8"/><circle cx="20" cy="260" r="8"/><circle cx="100" cy="260" r="8"/><circle cx="180" cy="260" r="8"/><circle cx="260" cy="260" r="8"/>
</g>
<circle cx="150" cy="150" r="96" fill="#FFF9E8" stroke="#1B1512" stroke-width="6"/>
<clipPath id="c3"><circle cx="150" cy="150" r="93"/></clipPath>
<g clip-path="url(#c3)"><g transform="translate(150 150) rotate(-6) scale(2.2)">
  <circle cx="0" cy="-14" r="8.5" fill="#5B2A7A" stroke="#1B1512" stroke-width="2.6"/><circle cx="-11" cy="-4" r="8.5" fill="#5B2A7A" stroke="#1B1512" stroke-width="2.6"/><circle cx="11" cy="-4" r="8.5" fill="#5B2A7A" stroke="#1B1512" stroke-width="2.6"/><circle cx="-6" cy="8" r="8.5" fill="#5B2A7A" stroke="#1B1512" stroke-width="2.6"/><circle cx="6" cy="8" r="8.5" fill="#5B2A7A" stroke="#1B1512" stroke-width="2.6"/><circle cx="0" cy="-2" r="8.5" fill="#5B2A7A" stroke="#1B1512" stroke-width="2.6"/><circle cx="0" cy="18" r="8.5" fill="#5B2A7A" stroke="#1B1512" stroke-width="2.6"/><circle cx="-13" cy="12" r="8.5" fill="#5B2A7A" stroke="#1B1512" stroke-width="2.6"/><circle cx="13" cy="12" r="8.5" fill="#5B2A7A" stroke="#1B1512" stroke-width="2.6"/>
  <circle cx="-2" cy="-16" r="2.6" fill="#B387D6" opacity="0.8"/><circle cx="-13" cy="-6" r="2.6" fill="#B387D6" opacity="0.8"/><circle cx="9" cy="-6" r="2.6" fill="#B387D6" opacity="0.8"/><circle cx="-8" cy="6" r="2.6" fill="#B387D6" opacity="0.8"/><circle cx="4" cy="6" r="2.6" fill="#B387D6" opacity="0.8"/><circle cx="-2" cy="-4" r="2.6" fill="#B387D6" opacity="0.8"/><circle cx="-2" cy="16" r="2.6" fill="#B387D6" opacity="0.8"/><circle cx="-15" cy="10" r="2.6" fill="#B387D6" opacity="0.8"/><circle cx="11" cy="10" r="2.6" fill="#B387D6" opacity="0.8"/>
  <path d="M0,-22 C6,-30 14,-30 16,-24" fill="none" stroke="#5FC66B" stroke-width="4" stroke-linecap="round"/>
</g></g>
<g transform="translate(150 262)">
  <rect x="-80" y="-18" width="160" height="34" rx="12" fill="#1B1512"/>
  <text x="0" y="5" text-anchor="middle" font-family="Fredoka, Arial, sans-serif" font-weight="600" font-size="16" fill="#FFF4DA">@DOKURUCLUB</text>
</g>

</svg>
