<svg xmlns="http://www.w3.org/2000/svg" viewBox="0 0 300 300" role="img" aria-label="DOKURU topluluk paylaşımı 2">
<title>DOKURU topluluk paylaşımı 2</title>

<rect width="300" height="300" fill="#FFC23C"/>
<g opacity="0.18" fill="#FFF9E8">
  <circle cx="20" cy="20" r="8"/><circle cx="100" cy="20" r="8"/><circle cx="180" cy="20" r="8"/><circle cx="260" cy="20" r="8"/><circle cx="20" cy="100" r="8"/><circle cx="100" cy="100" r="8"/><circle cx="180" cy="100" r="8"/><circle cx="260" cy="100" r="8"/><circle cx="20" cy="180" r="8"/><circle cx="100" cy="180" r="8"/><circle cx="180" cy="180" r="8"/><circle cx="260" cy="180" r="8"/><circle cx="20" cy="260" r="8"/><circle cx="100" cy="260" r="8"/><circle cx="180" cy="260" r="8"/><circle cx="260" cy="260" r="8"/>
</g>
<circle cx="150" cy="150" r="96" fill="#FFF9E8" stroke="#1B1512" stroke-width="6"/>
<clipPath id="c1"><circle cx="150" cy="150" r="93"/></clipPath>
<g clip-path="url(#c1)"><g transform="translate(150 155) rotate(-6) scale(1.7)">
  <path d="M-20,-4 C-30,-40 30,-40 20,-4 L14,30 C10,42 -10,42 -14,30 Z" fill="#FFC23C" stroke="#1B1512" stroke-width="3.5"/>
  <g stroke="#C77E12" stroke-width="2.2" opacity="0.8">
    <path d="M-18,2 L18,2"/><path d="M-16,14 L16,14"/><path d="M-14,26 L14,26"/>
    <path d="M-8,-30 L2,36"/><path d="M8,-30 L-2,36"/>
  </g>
  <path d="M0,-52 C10,-44 12,-30 4,-24 C0,-34 -2,-40 0,-52 Z" fill="#5FC66B" stroke="#1B1512" stroke-width="2.6"/>
  <path d="M0,-50 C-10,-44 -12,-30 -4,-24 C0,-34 2,-40 0,-50 Z" fill="#4FB55C" stroke="#1B1512" stroke-width="2.6"/>
  <path d="M-2,-46 C-4,-34 -4,-28 0,-24 C4,-28 4,-34 2,-46 Z" fill="#6FD37b" stroke="#1B1512" stroke-width="2.4"/>
</g></g>
<g transform="translate(150 262)">
  <rect x="-80" y="-18" width="160" height="34" rx="12" fill="#1B1512"/>
  <text x="0" y="5" text-anchor="middle" font-family="Fredoka, Arial, sans-serif" font-weight="600" font-size="16" fill="#FFF4DA">@DOKURUCLUB</text>
</g>

</svg>
