<svg xmlns="http://www.w3.org/2000/svg" viewBox="0 0 300 300" role="img" aria-label="DOKURU topluluk paylaşımı 3">
<title>DOKURU topluluk paylaşımı 3</title>

<rect width="300" height="300" fill="#FF8A3D"/>
<g opacity="0.18" fill="#FFF9E8">
  <circle cx="20" cy="20" r="8"/><circle cx="100" cy="20" r="8"/><circle cx="180" cy="20" r="8"/><circle cx="260" cy="20" r="8"/><circle cx="20" cy="100" r="8"/><circle cx="100" cy="100" r="8"/><circle cx="180" cy="100" r="8"/><circle cx="260" cy="100" r="8"/><circle cx="20" cy="180" r="8"/><circle cx="100" cy="180" r="8"/><circle cx="180" cy="180" r="8"/><circle cx="260" cy="180" r="8"/><circle cx="20" cy="260" r="8"/><circle cx="100" cy="260" r="8"/><circle cx="180" cy="260" r="8"/><circle cx="260" cy="260" r="8"/>
</g>
<circle cx="150" cy="150" r="96" fill="#FFF9E8" stroke="#1B1512" stroke-width="6"/>
<clipPath id="c2"><circle cx="150" cy="150" r="93"/></clipPath>
<g clip-path="url(#c2)"><g transform="translate(150 150) rotate(-8) scale(2)">
  <path d="M-6,-28 C24,-30 40,-6 30,20 C22,40 -6,44 -24,30 C-42,16 -34,-24 -6,-28 Z" fill="#FF8A2B" stroke="#1B1512" stroke-width="3.5"/>
  <path d="M-2,-24 C16,-22 26,-8 22,10" fill="none" stroke="#FFD23F" stroke-width="5" stroke-linecap="round" opacity="0.85"/>
  <path d="M-6,-28 C-6,-36 -2,-40 4,-40" fill="none" stroke="#5FC66B" stroke-width="4" stroke-linecap="round"/>
</g></g>
<g transform="translate(150 262)">
  <rect x="-80" y="-18" width="160" height="34" rx="12" fill="#1B1512"/>
  <text x="0" y="5" text-anchor="middle" font-family="Fredoka, Arial, sans-serif" font-weight="600" font-size="16" fill="#FFF4DA">@DOKURUCLUB</text>
</g>

</svg>
