<svg xmlns="http://www.w3.org/2000/svg" viewBox="0 0 300 300" role="img" aria-label="DOKURU topluluk paylaşımı 5">
<title>DOKURU topluluk paylaşımı 5</title>

<rect width="300" height="300" fill="#68C4E8"/>
<g opacity="0.18" fill="#FFF9E8">
  <circle cx="20" cy="20" r="8"/><circle cx="100" cy="20" r="8"/><circle cx="180" cy="20" r="8"/><circle cx="260" cy="20" r="8"/><circle cx="20" cy="100" r="8"/><circle cx="100" cy="100" r="8"/><circle cx="180" cy="100" r="8"/><circle cx="260" cy="100" r="8"/><circle cx="20" cy="180" r="8"/><circle cx="100" cy="180" r="8"/><circle cx="180" cy="180" r="8"/><circle cx="260" cy="180" r="8"/><circle cx="20" cy="260" r="8"/><circle cx="100" cy="260" r="8"/><circle cx="180" cy="260" r="8"/><circle cx="260" cy="260" r="8"/>
</g>
<circle cx="150" cy="150" r="96" fill="#FFF9E8" stroke="#1B1512" stroke-width="6"/>
<clipPath id="c4"><circle cx="150" cy="150" r="93"/></clipPath>
<g clip-path="url(#c4)"><g transform="translate(150 152) rotate(-6) scale(2)">
  <path d="M0,-26 C20,-26 32,-8 26,16 C22,34 -22,34 -26,16 C-32,-8 -20,-26 0,-26 Z" fill="#FF5C93" stroke="#1B1512" stroke-width="3.5"/>
  <path d="M0,0 C8,-4 14,-2 12,6 C6,8 2,6 0,0 Z" transform="translate(-24 -6) rotate(-30)" fill="#5FC66B" stroke="#1B1512" stroke-width="2.4"/><path d="M0,0 C8,-4 14,-2 12,6 C6,8 2,6 0,0 Z" transform="translate(24 -6) rotate(30)" fill="#5FC66B" stroke="#1B1512" stroke-width="2.4"/><path d="M0,0 C8,-4 14,-2 12,6 C6,8 2,6 0,0 Z" transform="translate(-16 -22) rotate(-20)" fill="#5FC66B" stroke="#1B1512" stroke-width="2.4"/><path d="M0,0 C8,-4 14,-2 12,6 C6,8 2,6 0,0 Z" transform="translate(16 -22) rotate(20)" fill="#5FC66B" stroke="#1B1512" stroke-width="2.4"/><path d="M0,0 C8,-4 14,-2 12,6 C6,8 2,6 0,0 Z" transform="translate(-20 18) rotate(-50)" fill="#5FC66B" stroke="#1B1512" stroke-width="2.4"/><path d="M0,0 C8,-4 14,-2 12,6 C6,8 2,6 0,0 Z" transform="translate(20 18) rotate(50)" fill="#5FC66B" stroke="#1B1512" stroke-width="2.4"/>
  <ellipse cx="0" cy="6" rx="14" ry="18" fill="#FFEAF2" stroke="#1B1512" stroke-width="2"/>
  <circle cx="-5" cy="-2" r="1.7" fill="#1B1512"/><circle cx="5" cy="0" r="1.7" fill="#1B1512"/><circle cx="0" cy="8" r="1.7" fill="#1B1512"/><circle cx="-4" cy="12" r="1.7" fill="#1B1512"/><circle cx="4" cy="14" r="1.7" fill="#1B1512"/><circle cx="0" cy="-6" r="1.7" fill="#1B1512"/>
</g></g>
<g transform="translate(150 262)">
  <rect x="-80" y="-18" width="160" height="34" rx="12" fill="#1B1512"/>
  <text x="0" y="5" text-anchor="middle" font-family="Fredoka, Arial, sans-serif" font-weight="600" font-size="16" fill="#FFF4DA">@DOKURUCLUB</text>
</g>

</svg>
