<svg xmlns="http://www.w3.org/2000/svg" viewBox="0 0 120 130" role="img" aria-label="dragonfruit-piece illüstrasyonu">
<title>dragonfruit-piece illüstrasyonu</title>
<g transform="translate(60 62) rotate(-6) scale(1.3)">
  <path d="M0,-26 C20,-26 32,-8 26,16 C22,34 -22,34 -26,16 C-32,-8 -20,-26 0,-26 Z" fill="#FF5C93" stroke="#1B1512" stroke-width="3.5"/>
  <path d="M0,0 C8,-4 14,-2 12,6 C6,8 2,6 0,0 Z" transform="translate(-24 -6) rotate(-30)" fill="#5FC66B" stroke="#1B1512" stroke-width="2.4"/><path d="M0,0 C8,-4 14,-2 12,6 C6,8 2,6 0,0 Z" transform="translate(24 -6) rotate(30)" fill="#5FC66B" stroke="#1B1512" stroke-width="2.4"/><path d="M0,0 C8,-4 14,-2 12,6 C6,8 2,6 0,0 Z" transform="translate(-16 -22) rotate(-20)" fill="#5FC66B" stroke="#1B1512" stroke-width="2.4"/><path d="M0,0 C8,-4 14,-2 12,6 C6,8 2,6 0,0 Z" transform="translate(16 -22) rotate(20)" fill="#5FC66B" stroke="#1B1512" stroke-width="2.4"/><path d="M0,0 C8,-4 14,-2 12,6 C6,8 2,6 0,0 Z" transform="translate(-20 18) rotate(-50)" fill="#5FC66B" stroke="#1B1512" stroke-width="2.4"/><path d="M0,0 C8,-4 14,-2 12,6 C6,8 2,6 0,0 Z" transform="translate(20 18) rotate(50)" fill="#5FC66B" stroke="#1B1512" stroke-width="2.4"/>
  <ellipse cx="0" cy="6" rx="14" ry="18" fill="#FFEAF2" stroke="#1B1512" stroke-width="2"/>
  <circle cx="-5" cy="-2" r="1.7" fill="#1B1512"/><circle cx="5" cy="0" r="1.7" fill="#1B1512"/><circle cx="0" cy="8" r="1.7" fill="#1B1512"/><circle cx="-4" cy="12" r="1.7" fill="#1B1512"/><circle cx="4" cy="14" r="1.7" fill="#1B1512"/><circle cx="0" cy="-6" r="1.7" fill="#1B1512"/>
</g>
</svg>
