<svg xmlns="http://www.w3.org/2000/svg" viewBox="0 0 120 130" role="img" aria-label="fig-piece illüstrasyonu">
<title>fig-piece illüstrasyonu</title>
<g transform="translate(60 60) rotate(-6) scale(1.35)">
  <path d="M0,-24 C18,-24 30,-6 24,18 C20,34 -20,34 -24,18 C-30,-6 -18,-24 0,-24 Z" fill="#7B3F8F" stroke="#1B1512" stroke-width="3.5"/>
  <path d="M0,-30 C6,-34 14,-32 12,-26 C8,-24 4,-24 0,-24 C-4,-24 -8,-24 -12,-26 C-14,-32 -6,-34 0,-30 Z" fill="#5FC66B" stroke="#1B1512" stroke-width="2.6"/>
  <ellipse cx="0" cy="10" rx="12" ry="14" fill="#E0577F" opacity="0.55"/>
  <circle cx="-4" cy="4" r="1.8" fill="#FFE0EC"/><circle cx="4" cy="8" r="1.8" fill="#FFE0EC"/><circle cx="0" cy="16" r="1.8" fill="#FFE0EC"/><circle cx="-6" cy="14" r="1.8" fill="#FFE0EC"/><circle cx="6" cy="0" r="1.8" fill="#FFE0EC"/>
</g>
</svg>
