<svg xmlns="http://www.w3.org/2000/svg" viewBox="0 0 600 600" role="img" aria-label="Yakın plan dondurularak kurutulmuş çilek">
<title>Yakın plan dondurularak kurutulmuş çilek</title>

<rect width="600" height="600" fill="#FFE28A"/>
<g opacity="0.14" fill="#1B1512">
  <circle cx="30" cy="30" r="6"/><circle cx="150" cy="30" r="6"/><circle cx="270" cy="30" r="6"/><circle cx="390" cy="30" r="6"/><circle cx="510" cy="30" r="6"/><circle cx="30" cy="150" r="6"/><circle cx="150" cy="150" r="6"/><circle cx="270" cy="150" r="6"/><circle cx="390" cy="150" r="6"/><circle cx="510" cy="150" r="6"/><circle cx="30" cy="270" r="6"/><circle cx="150" cy="270" r="6"/><circle cx="270" cy="270" r="6"/><circle cx="390" cy="270" r="6"/><circle cx="510" cy="270" r="6"/><circle cx="30" cy="390" r="6"/><circle cx="150" cy="390" r="6"/><circle cx="270" cy="390" r="6"/><circle cx="390" cy="390" r="6"/><circle cx="510" cy="390" r="6"/><circle cx="30" cy="510" r="6"/><circle cx="150" cy="510" r="6"/><circle cx="270" cy="510" r="6"/><circle cx="390" cy="510" r="6"/><circle cx="510" cy="510" r="6"/>
</g>
<circle cx="300" cy="300" r="210" fill="#FFF9E8" stroke="#1B1512" stroke-width="8"/>
<clipPath id="story"><circle cx="300" cy="300" r="204"/></clipPath>
<g clip-path="url(#story)">
  <g transform="translate(240 260) rotate(-10) scale(3.2)">
  <path d="M0,-30 C22,-30 34,-14 30,6 C26,26 12,40 0,40 C-12,40 -26,26 -30,6 C-34,-14 -22,-30 0,-30 Z" fill="#FF4D3D" stroke="#1B1512" stroke-width="3.5"/>
  <path d="M-16,-30 C-10,-40 10,-40 16,-30 C10,-24 6,-22 0,-22 C-6,-22 -10,-24 -16,-30 Z" fill="#5FC66B" stroke="#1B1512" stroke-width="3"/>
  <path d="M0,-40 L0,-28" stroke="#3B7d3f" stroke-width="4" stroke-linecap="round"/>
  <ellipse cx="-14" cy="-8" rx="2.4" ry="3.6" fill="#FFE9A8" stroke="#1B1512" stroke-width="1" transform="rotate(0 -14 -8)"/><ellipse cx="4" cy="-12" rx="2.4" ry="3.6" fill="#FFE9A8" stroke="#1B1512" stroke-width="1" transform="rotate(24 4 -12)"/><ellipse cx="-4" cy="4" rx="2.4" ry="3.6" fill="#FFE9A8" stroke="#1B1512" stroke-width="1" transform="rotate(48 -4 4)"/><ellipse cx="14" cy="-2" rx="2.4" ry="3.6" fill="#FFE9A8" stroke="#1B1512" stroke-width="1" transform="rotate(72 14 -2)"/><ellipse cx="-16" cy="12" rx="2.4" ry="3.6" fill="#FFE9A8" stroke="#1B1512" stroke-width="1" transform="rotate(96 -16 12)"/><ellipse cx="8" cy="8" rx="2.4" ry="3.6" fill="#FFE9A8" stroke="#1B1512" stroke-width="1" transform="rotate(120 8 8)"/><ellipse cx="0" cy="20" rx="2.4" ry="3.6" fill="#FFE9A8" stroke="#1B1512" stroke-width="1" transform="rotate(144 0 20)"/><ellipse cx="-8" cy="-20" rx="2.4" ry="3.6" fill="#FFE9A8" stroke="#1B1512" stroke-width="1" transform="rotate(168 -8 -20)"/>
</g>
  <g transform="translate(390 360) rotate(14) scale(2.1)">
  <path d="M0,-30 C22,-30 34,-14 30,6 C26,26 12,40 0,40 C-12,40 -26,26 -30,6 C-34,-14 -22,-30 0,-30 Z" fill="#FF4D3D" stroke="#1B1512" stroke-width="3.5"/>
  <path d="M-16,-30 C-10,-40 10,-40 16,-30 C10,-24 6,-22 0,-22 C-6,-22 -10,-24 -16,-30 Z" fill="#5FC66B" stroke="#1B1512" stroke-width="3"/>
  <path d="M0,-40 L0,-28" stroke="#3B7d3f" stroke-width="4" stroke-linecap="round"/>
  <ellipse cx="-14" cy="-8" rx="2.4" ry="3.6" fill="#FFE9A8" stroke="#1B1512" stroke-width="1" transform="rotate(0 -14 -8)"/><ellipse cx="4" cy="-12" rx="2.4" ry="3.6" fill="#FFE9A8" stroke="#1B1512" stroke-width="1" transform="rotate(24 4 -12)"/><ellipse cx="-4" cy="4" rx="2.4" ry="3.6" fill="#FFE9A8" stroke="#1B1512" stroke-width="1" transform="rotate(48 -4 4)"/><ellipse cx="14" cy="-2" rx="2.4" ry="3.6" fill="#FFE9A8" stroke="#1B1512" stroke-width="1" transform="rotate(72 14 -2)"/><ellipse cx="-16" cy="12" rx="2.4" ry="3.6" fill="#FFE9A8" stroke="#1B1512" stroke-width="1" transform="rotate(96 -16 12)"/><ellipse cx="8" cy="8" rx="2.4" ry="3.6" fill="#FFE9A8" stroke="#1B1512" stroke-width="1" transform="rotate(120 8 8)"/><ellipse cx="0" cy="20" rx="2.4" ry="3.6" fill="#FFE9A8" stroke="#1B1512" stroke-width="1" transform="rotate(144 0 20)"/><ellipse cx="-8" cy="-20" rx="2.4" ry="3.6" fill="#FFE9A8" stroke="#1B1512" stroke-width="1" transform="rotate(168 -8 -20)"/>
</g>
  <g transform="translate(400 220) rotate(8) scale(1.6)">
  <circle cx="0" cy="-14" r="8.5" fill="#5B2A7A" stroke="#1B1512" stroke-width="2.6"/><circle cx="-11" cy="-4" r="8.5" fill="#5B2A7A" stroke="#1B1512" stroke-width="2.6"/><circle cx="11" cy="-4" r="8.5" fill="#5B2A7A" stroke="#1B1512" stroke-width="2.6"/><circle cx="-6" cy="8" r="8.5" fill="#5B2A7A" stroke="#1B1512" stroke-width="2.6"/><circle cx="6" cy="8" r="8.5" fill="#5B2A7A" stroke="#1B1512" stroke-width="2.6"/><circle cx="0" cy="-2" r="8.5" fill="#5B2A7A" stroke="#1B1512" stroke-width="2.6"/><circle cx="0" cy="18" r="8.5" fill="#5B2A7A" stroke="#1B1512" stroke-width="2.6"/><circle cx="-13" cy="12" r="8.5" fill="#5B2A7A" stroke="#1B1512" stroke-width="2.6"/><circle cx="13" cy="12" r="8.5" fill="#5B2A7A" stroke="#1B1512" stroke-width="2.6"/>
  <circle cx="-2" cy="-16" r="2.6" fill="#B387D6" opacity="0.8"/><circle cx="-13" cy="-6" r="2.6" fill="#B387D6" opacity="0.8"/><circle cx="9" cy="-6" r="2.6" fill="#B387D6" opacity="0.8"/><circle cx="-8" cy="6" r="2.6" fill="#B387D6" opacity="0.8"/><circle cx="4" cy="6" r="2.6" fill="#B387D6" opacity="0.8"/><circle cx="-2" cy="-4" r="2.6" fill="#B387D6" opacity="0.8"/><circle cx="-2" cy="16" r="2.6" fill="#B387D6" opacity="0.8"/><circle cx="-15" cy="10" r="2.6" fill="#B387D6" opacity="0.8"/><circle cx="11" cy="10" r="2.6" fill="#B387D6" opacity="0.8"/>
  <path d="M0,-22 C6,-30 14,-30 16,-24" fill="none" stroke="#5FC66B" stroke-width="4" stroke-linecap="round"/>
</g>
  <g transform="translate(220 400) rotate(-14) scale(1.6)">
  <path d="M-6,-28 C24,-30 40,-6 30,20 C22,40 -6,44 -24,30 C-42,16 -34,-24 -6,-28 Z" fill="#FF8A2B" stroke="#1B1512" stroke-width="3.5"/>
  <path d="M-2,-24 C16,-22 26,-8 22,10" fill="none" stroke="#FFD23F" stroke-width="5" stroke-linecap="round" opacity="0.85"/>
  <path d="M-6,-28 C-6,-36 -2,-40 4,-40" fill="none" stroke="#5FC66B" stroke-width="4" stroke-linecap="round"/>
</g>
</g>
<g transform="translate(300 300) rotate(-8)"></g>

</svg>
